<svg version="1.2" xmlns="http://www.w3.org/2000/svg" viewBox="0 0 30 26" width="30" height="26">
	<title>logo-svg</title>
	<style>
		.s0 { fill: #FFF } 
		.s1 { fill: #030303 } 
	</style>
	<g id="Layer">
		<g id="SvgjsG1008">
			<g id="SvgjsG1009">
				<path id="Layer" fill-rule="evenodd" class="s0" d="m26.7 0c1.7 0 3.1 1.4 3.1 3.1v16.3c0 1.7-1.4 3.1-3.1 3.1h-1.9l-2.6 2.6q-0.2 0.2-0.4 0.4-0.3 0.2-0.6 0.3-0.2 0.1-0.5 0.2-0.3 0-0.6 0h-0.1q-0.3 0-0.6 0-0.3-0.1-0.6-0.2-0.3-0.2-0.5-0.3-0.3-0.2-0.5-0.5l-2.4-2.5h-12.3c-1.7 0-3.1-1.4-3.1-3.1v-16.3c0-1.7 1.4-3.1 3.1-3.1zm0 3.1h-23.7v16.3h13.7l3.3 3.5 3.5-3.5h3.2z"/>
				<path id="Layer" class="s0" d="m10 8.4c0-0.8 0.6-1.4 1.5-1.4 0.8 0 1.5 0.6 1.5 1.4 0 0.9-0.6 1.5-1.5 1.5-0.9 0-1.5-0.6-1.5-1.5zm8.3 1.5c-0.8 0-1.5-0.6-1.5-1.5 0-0.8 0.7-1.4 1.5-1.4 0.9 0 1.5 0.6 1.5 1.4 0 0.9-0.6 1.5-1.5 1.5zm5.5 0.5q0 0.1 0.1 0.2 0 0.1 0 0.1 0.1 0.1 0.1 0.2 0 0.1 0 0.2-0.1 0.1-0.1 0.2 0 0.1-0.1 0.2 0 0.1-0.1 0.1c-2.2 2.4-5.1 3.8-8.3 3.9q-0.2 0-0.5 0-0.2 0-0.5 0c-3.2-0.1-6.1-1.5-8.3-3.9q-0.1-0.1-0.2-0.3-0.1-0.2 0-0.4 0-0.2 0-0.3 0.1-0.2 0.3-0.3c0.3-0.4 1-0.4 1.3 0 1.8 2 4.3 3.1 7 3.3q1.1 0 2.2-0.2 1-0.2 2-0.6 1.1-0.4 2-1.1 0.9-0.6 1.6-1.4c0.3-0.4 1-0.4 1.4 0q0 0 0.1 0.1z"/>
			</g>
			<g id="SvgjsG1010">
				<path id="Layer" fill-rule="evenodd" class="s1" d="m52.5 1.9l-1.7 11h-4.6l-0.8-4.1h-0.2l-0.8 4.1h-4.6l-1.7-11h3.7l0.8 6.1h0.1l1.3-6.1h2.6l1.3 6.1h0.1l0.8-6.1zm0.9 0h3.5v11h-3.5zm5.2 0h4.9q3 0 4.1 1.3 1.1 1.2 1.1 4.2 0 3-1.1 4.2-1.1 1.3-4.1 1.3h-4.9zm3.5 2.8v5.4h1.5q0.7 0 1-0.2 0.3-0.2 0.3-0.8v-3.5q0-0.6-0.3-0.7-0.3-0.2-1-0.2zm13.3 4.5h-0.8v-2.7h4.2v5.8q-2.1 0.8-4.3 0.8-3 0-4.1-1.4-0.6-0.8-0.8-1.8-0.3-1-0.3-2.5 0-1.5 0.3-2.5 0.2-1.1 0.8-1.8 1.2-1.5 4.5-1.5 0.7 0 1.7 0.1 1.2 0.2 1.6 0.4l-0.5 2.7q-1.4-0.3-2.5-0.3-1.2 0-1.6 0.2-0.5 0.2-0.5 0.7v5h1.1q0.7 0 1-0.2 0.2-0.1 0.2-0.6zm8.4-0.4v1.3h4.3v2.8h-7.8v-10.9h7.7l-0.4 2.8h-3.8v1.4h3.5v2.6zm11-4v8.1h-3.4v-8.1h-2.6v-2.8h8.6v2.8z"/>
			</g>
			<g id="SvgjsG1011">
				<path id="Layer" fill-rule="evenodd" class="s0" d="m101.1 2.2h4.9q2.9 0 4 1.2 1.1 1.3 1.1 4.3 0 2.9-1.1 4.2-1.1 1.3-4 1.3h-4.9zm3.5 2.8v5.3h1.4q0.7 0 1.1-0.1 0.3-0.2 0.3-0.8v-3.5q0-0.6-0.3-0.8-0.4-0.1-1.1-0.1zm11.3 4v1.3h4.3v2.8h-7.8v-10.9h7.7l-0.4 2.8h-3.8v1.4h3.5v2.6zm15.4-6.8l-2.7 10.9h-5.1l-2.7-10.9h3.7l1.5 6.9h0.1l1.5-6.9z"/>
			</g>
			<g id="SvgjsG1012">
				<path id="Layer" fill-rule="evenodd" class="s0" d="m38.2 19h0.5v3.6h-0.5zm0-1.4q0.1-0.1 0.3-0.1 0.1 0 0.2 0.1 0.1 0.1 0.1 0.3 0 0.2-0.1 0.3-0.1 0-0.2 0-0.2 0-0.3 0-0.1-0.2-0.1-0.3 0-0.2 0.1-0.3zm5.4 2.8q0-0.6-0.1-0.8-0.1-0.3-0.5-0.3-0.2 0-0.4 0.2-0.2 0.2-0.3 0.4v2.6h-0.5v-3.5h0.4l0.1 0.3q0.1-0.2 0.3-0.3 0.3-0.1 0.6-0.1 0.2 0 0.4 0 0.2 0.1 0.3 0.3 0.1 0.1 0.2 0.4 0 0.2 0 0.6v2.3h-0.5zm7.5-1.7l0.1 0.7v3.2h-0.5v-5.1h0.3l1.8 3.3 0.3 0.7h0.1l-0.1-0.7v-3.2h0.5v5.1h-0.3l-1.8-3.3zm7.1 4q-0.3 0.1-0.6 0.1-0.3 0-0.5-0.2-0.3-0.1-0.5-0.3-0.1-0.3-0.2-0.6-0.1-0.4-0.1-0.8 0-0.9 0.4-1.4 0.3-0.5 0.9-0.5 0.2 0 0.4 0.1 0.2 0 0.4 0.2 0.1 0.1 0.2 0.4 0.1 0.3 0.1 0.7 0 0.1 0 0.3 0 0.1 0 0.3h-1.8q0 0.3 0 0.5 0.1 0.3 0.2 0.4 0.1 0.2 0.3 0.3 0.1 0.1 0.4 0.1 0.2 0 0.3-0.1 0.2 0 0.3-0.1l0.2 0.4q-0.2 0.1-0.4 0.2zm-0.1-3q-0.2-0.2-0.5-0.2-0.3 0-0.5 0.2-0.2 0.3-0.2 0.8h1.3q0-0.5-0.1-0.8zm3.1-0.6h0.6l0.5 1 0.2 0.5 0.1-0.5 0.6-1h0.5l-0.9 1.7 1 1.9h-0.6l-0.6-1.1-0.1-0.5-0.2 0.5-0.6 1.1h-0.6l1.1-1.8zm5.3 0v-0.7l0.5-0.2v0.9h0.8v0.4h-0.8v2.2q0 0.3 0.1 0.4 0 0.1 0.2 0.1 0.2 0 0.3 0 0.1 0 0.2-0.1l0.1 0.4q-0.2 0.1-0.4 0.2-0.2 0-0.4 0-0.3 0-0.5-0.2-0.1-0.3-0.1-0.8v-2.2h-0.4v-0.4zm4.7-1.5v3.9q0 0.6-0.2 0.9-0.2 0.3-0.6 0.3-0.1 0-0.3 0-0.1-0.1-0.3-0.1l0.2-0.5q0 0.1 0.1 0.1 0.1 0 0.2 0 0.1 0 0.2-0.1 0.1 0 0.1-0.1 0.1-0.1 0.1-0.3 0-0.1 0-0.3v-3.8zm3.3 4.6q0.2 0.1 0.4 0.1 0.3 0 0.4-0.2 0.2-0.1 0.2-0.4 0-0.2-0.1-0.3-0.1-0.2-0.3-0.3-0.1-0.1-0.3-0.2-0.2-0.1-0.3-0.2-0.2-0.2-0.3-0.3-0.1-0.2-0.1-0.5 0-0.5 0.3-0.7 0.2-0.2 0.7-0.2 0.3 0 0.5 0 0.2 0.1 0.4 0.2l-0.2 0.4q-0.1-0.1-0.3-0.1-0.2-0.1-0.4-0.1-0.2 0-0.3 0.1-0.2 0.2-0.2 0.4 0 0.2 0.2 0.3 0 0.1 0.2 0.2 0.1 0.1 0.3 0.2 0.2 0.1 0.4 0.3 0.1 0.1 0.2 0.3 0.1 0.2 0.1 0.5 0 0.2 0 0.4-0.1 0.2-0.3 0.3-0.1 0.2-0.3 0.2-0.2 0.1-0.4 0.1-0.3 0-0.6 0-0.2-0.1-0.4-0.2l0.2-0.5q0.1 0.1 0.3 0.2z"/>
			</g>
		</g>
	</g>
</svg>