<svg version="1.2" xmlns="http://www.w3.org/2000/svg" viewBox="0 0 569 112" width="569" height="112">
	<title>logo-svg</title>
	<style>
		.primary { fill: #9100bd } 
		.s1 { fill: #030303 } 
	</style>
	<g id="Layer">
		<g id="SvgjsG1008">
			<g id="SvgjsG1009">
				<path id="Layer" fill-rule="evenodd" class="primary" d="m115.8 0c7.4 0 13.4 6 13.4 13.3v70.2c0 7.4-6 13.4-13.4 13.4h-8.2l-11.3 11.3q-0.9 0.9-2 1.6-1.1 0.8-2.3 1.3-1.2 0.5-2.5 0.7-1.3 0.3-2.6 0.3h-0.2q-1.3 0-2.6-0.3-1.3-0.3-2.5-0.8-1.3-0.6-2.4-1.3-1.1-0.8-2-1.8l-10.5-11h-53.4c-7.3 0-13.3-6-13.3-13.4v-70.2c0-7.3 6-13.3 13.3-13.3zm0 13.3h-102.5v70.2h59.1l14.5 15.2 15.2-15.2h13.7z"/>
				<path id="Layer" class="primary" d="m43.2 36.3c0-3.5 2.8-6.2 6.5-6.2 3.8 0 6.6 2.6 6.6 6.3 0 3.6-2.7 6.1-6.5 6.3h-0.1c-3.7 0-6.5-2.7-6.5-6.4zm29.7 0c0-3.5 2.8-6.2 6.5-6.2 3.8 0 6.5 2.6 6.5 6.3 0 3.6-2.7 6.1-6.5 6.3-3.8 0-6.5-2.7-6.5-6.4zm30.1 8.5q0.3 0.3 0.4 0.7 0.2 0.4 0.3 0.8 0.1 0.4 0.1 0.8 0 0.4 0 0.8-0.1 0.4-0.2 0.8-0.2 0.4-0.4 0.7-0.2 0.4-0.5 0.7c-9.4 10.1-22.1 16.1-35.9 16.7q-1.1 0-2.2 0-1.1 0-2.1 0c-13.9-0.6-26.7-6.5-36-16.7q-0.6-0.6-0.9-1.4-0.3-0.8-0.2-1.6 0-0.8 0.3-1.6 0.4-0.8 1-1.3c1.6-1.5 4.4-1.4 5.9 0.2 7.9 8.6 18.6 13.5 30.2 14q4.7 0.2 9.4-0.7 4.7-0.8 9-2.6 4.4-1.8 8.3-4.5 3.9-2.7 7.1-6.2c1.5-1.6 4.3-1.7 5.9-0.2q0.3 0.2 0.5 0.6z"/>
			</g>
			<g id="SvgjsG1010">
				<path id="Layer" fill-rule="evenodd" class="s1" d="m227.4 8.2l-7.4 47.3h-19.8l-3.5-17.4h-0.9l-3.4 17.4h-19.8l-7.4-47.3h15.8l3.6 26.4h0.5l5.4-26.4h11.6l5.4 26.4h0.4l3.7-26.4zm3.8 0h15.1v47.3h-15.1zm22.7 0h21.2q12.8 0 17.6 5.5 4.7 5.4 4.7 18.2 0 12.8-4.7 18.2-4.8 5.5-17.6 5.5h-21.2zm15.1 12.1v23.1h6.3q3.1 0 4.5-0.7 1.4-0.8 1.4-3.3v-15.1q0-2.6-1.4-3.3-1.4-0.7-4.5-0.7zm57.9 19.2h-3.8v-11.6h18.2v25.3q-9 3.4-18.6 3.4-12.9 0-17.8-6.2-2.5-3.3-3.5-7.7-1-4.4-1-10.9 0-6.4 1-10.8 1.1-4.4 3.7-7.6 5-6.4 19.3-6.4 3 0 7.7 0.6 4.8 0.6 6.9 1.4l-2.2 11.6q-6.2-1.1-11.1-1.1-5 0-7 0.8-2 0.7-2 3v21.4h5q2.7 0 4-0.5 1.2-0.6 1.2-2.6zm36.4-1.9v5.7h18.5v12.1h-33.7v-47.3h33.4l-1.9 12.1h-16.3v6.4h15.1v11zm47.7-17.4v35.2h-15.1v-35.2h-11v-12.1h37.1v12.1z"/>
			</g>
			<g id="SvgjsG1011">
				<path id="Layer" fill-rule="evenodd" class="primary" d="m438 9.3h21.2q12.8 0 17.6 5.5 4.7 5.4 4.7 18.2 0 12.8-4.7 18.2-4.8 5.5-17.6 5.5h-21.2zm15.1 12.1v23.1h6.3q3.1 0 4.5-0.7 1.4-0.8 1.4-3.3v-15.1q0-2.6-1.4-3.3-1.4-0.7-4.5-0.7zm48.9 17.3v5.8h18.5v12.1h-33.7v-47.3h33.4l-1.9 12.1h-16.3v6.3h15.1v11zm66.8-29.4l-11.7 47.3h-22.1l-11.8-47.3h16l6.5 30h0.6l6.5-30z"/>
			</g>
			<g id="SvgjsG1012">
				<path id="Layer" fill-rule="evenodd" class="primary" d="m167.8 81.8v15.4h-2.2v-15.4zm-2.2-5.9q0.4-0.4 1.1-0.4 0.7 0 1.1 0.4 0.5 0.5 0.5 1.2 0 0.8-0.5 1.2-0.4 0.4-1.1 0.4-0.7 0-1.1-0.4-0.4-0.5-0.4-1.2 0-0.7 0.4-1.2zm23.4 11.9q0-2.3-0.6-3.3-0.5-1.1-1.9-1.1-1.2 0-2 0.8-0.8 0.7-1.2 1.8v11.2h-2.2v-15.4h1.6l0.4 1.6h0.1q0.6-0.8 1.6-1.4 1-0.6 2.3-0.6 1 0 1.8 0.3 0.7 0.3 1.3 0.9 0.5 0.7 0.7 1.8 0.3 1.1 0.3 2.8v10h-2.2zm32.6-7.7h-0.1l0.4 3.4v13.6h-2.2v-21.8h1.4l7.9 13.9 1.3 3.3h0.1l-0.3-3.3v-13.6h2.2v21.9h-1.4l-7.9-14zm30.9 17q-1.2 0.4-2.4 0.4-1.5 0-2.5-0.6-1.1-0.6-1.8-1.6-0.7-1.1-1-2.6-0.3-1.4-0.3-3.3 0-3.9 1.4-6 1.5-2 4.1-2 0.9 0 1.7 0.2 0.9 0.2 1.6 0.8 0.6 0.7 1 1.9 0.5 1.1 0.5 3 0 0.5-0.1 1.1 0 0.6-0.1 1.3h-7.8q0 1.3 0.2 2.4 0.2 1 0.7 1.8 0.5 0.7 1.2 1.2 0.7 0.4 1.8 0.4 0.8 0 1.6-0.3 0.8-0.3 1.3-0.8l0.8 1.7q-0.8 0.6-1.9 1zm-0.5-12.7q-0.7-1-1.9-1-1.5 0-2.3 1-0.8 1.1-1 3.4h5.8q0.1-2.3-0.6-3.4zm13.6-2.7h2.6l2.3 4.4 0.6 1.8 0.7-1.8 2.3-4.4h2.4l-4.1 7.4 4.4 8h-2.5l-2.6-4.8-0.7-1.9-0.7 1.9-2.6 4.8h-2.4l4.4-7.9zm23.1 0v-3l2.2-0.7v3.7h3.3v2h-3.3v9.2q0 1.3 0.3 1.9 0.3 0.6 1.1 0.6 0.6 0 1-0.1 0.5-0.1 1-0.4l0.4 1.8q-0.6 0.3-1.5 0.5-0.8 0.2-1.7 0.2-1.5 0-2.2-1-0.6-1-0.6-3.2v-9.5h-1.9v-2zm20.7-6.1v16.7q0 2.5-0.8 3.8-0.9 1.3-2.9 1.3-0.5 0-1.2-0.1-0.6-0.2-1.1-0.4l0.5-2q0.3 0.2 0.7 0.3 0.4 0.1 0.8 0.1 0.5 0 0.9-0.3 0.3-0.2 0.5-0.7 0.2-0.4 0.2-1 0.1-0.7 0.1-1.5v-16.2zm14.5 19.6q0.8 0.3 1.7 0.3 1 0 1.7-0.5 0.7-0.6 0.7-1.7 0-0.9-0.4-1.6-0.4-0.6-1.1-1.1-0.7-0.5-1.4-0.9-0.8-0.4-1.5-1-0.6-0.6-1-1.4-0.5-0.8-0.5-2 0-1.9 1.1-2.9 1-1 3-1 1.2 0 2.2 0.2 0.9 0.2 1.6 0.6l-0.6 1.9q-0.6-0.3-1.4-0.5-0.7-0.2-1.6-0.2-1.1 0-1.6 0.4-0.5 0.5-0.5 1.5 0 0.7 0.5 1.3 0.4 0.5 1.1 0.9 0.6 0.5 1.4 1 0.7 0.4 1.4 1.1 0.7 0.6 1.1 1.5 0.4 0.8 0.4 2.1 0 0.9-0.2 1.7-0.3 0.7-0.9 1.3-0.6 0.6-1.4 0.9-0.8 0.4-2 0.4-1.3 0-2.3-0.3-1-0.3-1.7-0.7l0.7-1.9q0.6 0.3 1.5 0.6z"/>
			</g>
		</g>
	</g>
</svg>