<svg width="22" height="35" viewBox="0 0 22 35" fill="none" xmlns="http://www.w3.org/2000/svg">
<path d="M22 10.92C22 17.359 17 18.359 17 24.36C17 27.458 13.877 27.719 11.5 27.719C9.447 27.719 4.914 26.94 4.914 24.358C4.914 18.36 0 17.36 0 10.92C0 4.889 5.285 0 11.083 0C16.883 0 22 4.889 22 10.92Z" fill="#FFD983"/>
<path d="M15.167 32.36C15.167 33.188 12.933 34.86 11 34.86C9.06701 34.86 6.83301 33.188 6.83301 32.36C6.83301 31.532 9.06601 31.86 11 31.86C12.933 31.86 15.167 31.532 15.167 32.36Z" fill="#CCD6DD"/>
<path d="M15.707 10.153C15.316 9.76199 14.684 9.76199 14.293 10.153L11 13.446L7.70701 10.153C7.31601 9.76199 6.68401 9.76199 6.29301 10.153C5.90201 10.544 5.90201 11.176 6.29301 11.567L10 15.274V25.86C10 26.413 10.448 26.86 11 26.86C11.552 26.86 12 26.413 12 25.86V15.274L15.707 11.567C16.098 11.176 16.098 10.544 15.707 10.153Z" fill="#FFCC4D"/>
<path d="M17 30.86C17 31.964 16.104 32.86 15 32.86H7C5.896 32.86 5 31.964 5 30.86V24.86H17V30.86Z" fill="#99AAB5"/>
<path d="M4.99894 31.86C4.51894 31.86 4.09494 31.513 4.01394 31.024C3.92294 30.48 4.29094 29.964 4.83594 29.874L16.8359 27.874C17.3799 27.776 17.8959 28.151 17.9859 28.696C18.0769 29.24 17.7089 29.756 17.1639 29.846L5.16394 31.846C5.10894 31.856 5.05294 31.86 4.99894 31.86ZM4.99894 27.86C4.51894 27.86 4.09494 27.513 4.01394 27.024C3.92294 26.48 4.29094 25.964 4.83594 25.874L16.8359 23.874C17.3799 23.777 17.8959 24.151 17.9859 24.696C18.0769 25.24 17.7089 25.756 17.1639 25.846L5.16394 27.846C5.10894 27.856 5.05294 27.86 4.99894 27.86Z" fill="#CCD6DD"/>
</svg>
