<?xml version="1.0" standalone="no"?>
<!DOCTYPE svg PUBLIC "-//W3C//DTD SVG 20010904//EN"
 "http://www.w3.org/TR/2001/REC-SVG-20010904/DTD/svg10.dtd">
<svg version="1.0" xmlns="http://www.w3.org/2000/svg"
  viewBox="0 0 837.000000 272.000000"
 preserveAspectRatio="xMidYMid meet">

<g transform="translate(0.000000,272.000000) scale(0.100000,-0.100000)"
fill="#014999" stroke="none">
<path d="M2670 1763 l0 -217 -42 42 c-74 75 -200 92 -305 41 -57 -28 -127
-108 -154 -177 -32 -79 -34 -260 -4 -342 30 -82 103 -153 179 -175 108 -32
214 -3 289 79 l37 41 0 -58 0 -57 55 0 55 0 0 520 0 520 -55 0 -55 0 0 -217z
m-104 -220 c22 -11 53 -39 69 -62 28 -40 30 -49 33 -155 4 -128 -6 -176 -47
-233 -39 -54 -91 -78 -168 -78 -123 1 -195 88 -201 246 -5 112 14 181 65 238
64 71 163 89 249 44z"/>
<path d="M1875 1958 c-28 -16 -35 -28 -35 -65 0 -35 29 -73 56 -73 19 0 56 19
66 34 4 6 8 25 8 41 0 36 -8 48 -37 64 -26 14 -33 13 -58 -1z"/>
<path d="M5040 1431 l0 -491 198 0 c220 1 319 14 403 54 193 91 291 294 259
535 -20 152 -96 273 -204 325 -102 50 -155 58 -413 63 l-243 5 0 -491z m480
283 c57 -26 107 -76 134 -134 17 -36 21 -65 21 -145 0 -89 -3 -106 -28 -157
-55 -112 -141 -158 -299 -158 l-88 0 0 311 0 311 108 -4 c80 -3 118 -9 152
-24z"/>
<path d="M4650 1826 l-35 -13 -3 -86 -3 -87 -59 0 -60 0 0 -45 0 -44 58 -3 57
-3 5 -255 c5 -233 7 -258 25 -290 38 -63 128 -93 213 -71 42 12 42 12 42 57 0
40 -2 45 -17 39 -36 -15 -62 -17 -96 -6 -58 20 -62 37 -62 295 l0 231 88 3 87
3 0 44 0 45 -90 0 -90 0 0 100 c0 109 1 108 -60 86z"/>
<path d="M3207 1650 c-133 -34 -215 -139 -236 -303 -23 -188 37 -340 156 -398
37 -17 66 -23 123 -23 91 -1 152 25 203 85 19 21 37 39 42 39 11 0 -1 -155
-15 -203 -16 -53 -72 -112 -128 -134 -71 -27 -179 -22 -266 11 -37 14 -70 26
-73 26 -2 0 -3 -23 -1 -52 l3 -51 55 -20 c84 -30 255 -29 334 3 75 29 137 91
168 168 22 56 23 67 26 450 l3 392 -50 0 -51 0 0 -45 c0 -25 -4 -45 -8 -45 -5
0 -18 13 -30 30 -45 60 -164 93 -255 70z m148 -91 c52 -15 119 -82 134 -134
16 -59 13 -193 -5 -256 -37 -125 -169 -191 -279 -140 -81 37 -122 107 -132
220 -10 119 34 239 103 281 63 40 112 47 179 29z"/>
<path d="M4030 1647 c-99 -28 -181 -108 -217 -209 -25 -74 -25 -242 0 -316 25
-70 103 -155 165 -179 72 -27 218 -24 297 8 l60 24 3 52 3 52 -43 -24 c-68
-37 -154 -51 -225 -36 -99 22 -173 119 -173 225 l0 26 246 0 246 0 -4 88 c-9
182 -97 284 -256 297 -32 3 -77 -1 -102 -8z m175 -107 c37 -23 70 -83 78 -142
l6 -38 -195 0 c-107 0 -194 4 -194 8 0 5 7 29 16 55 18 54 75 115 125 134 45
17 122 9 164 -17z"/>
<path d="M6269 1647 c-107 -30 -192 -106 -231 -206 -29 -75 -31 -231 -5 -309
27 -75 102 -155 175 -183 76 -30 247 -31 337 -2 l60 19 3 75 3 76 -73 -25
c-87 -29 -185 -27 -240 5 -39 23 -78 77 -78 109 l0 24 225 0 225 0 0 89 c0
126 -20 182 -90 251 -38 39 -69 60 -100 69 -65 19 -158 23 -211 8z m159 -153
c27 -17 52 -70 52 -109 l0 -25 -130 0 c-141 0 -141 0 -119 57 33 87 126 123
197 77z"/>
<path d="M743 1628 c3 -10 179 -589 203 -670 4 -14 16 -18 58 -18 l53 0 82
268 c45 147 85 274 88 282 3 8 15 -21 27 -65 12 -44 49 -171 81 -283 l58 -203
55 3 56 3 97 325 c54 179 101 335 104 348 5 22 4 23 -46 20 l-52 -3 -73 -270
c-40 -148 -74 -280 -74 -292 0 -13 -4 -23 -10 -23 -5 0 -10 7 -10 16 0 9 -35
142 -77 295 l-76 279 -48 0 c-45 0 -48 -2 -58 -32 -67 -212 -161 -529 -161
-541 0 -10 -4 -17 -10 -17 -5 0 -10 10 -10 23 0 19 -76 306 -135 515 l-16 52
-55 0 c-41 0 -55 -3 -51 -12z"/>
<path d="M1850 1290 l0 -350 55 0 55 0 0 350 0 350 -55 0 -55 0 0 -350z"/>
<path d="M6740 1588 c11 -29 67 -186 124 -348 l104 -295 120 -3 120 -3 129
348 130 348 -105 3 c-67 2 -108 -1 -112 -8 -6 -10 -131 -451 -145 -515 -6 -26
-11 -15 -35 75 -14 58 -49 183 -75 278 l-49 172 -112 0 -113 0 19 -52z"/>
</g>
</svg>
