<svg width="35" height="33" viewBox="0 0 35 33" fill="none" xmlns="http://www.w3.org/2000/svg">
<path d="M35 10.875C35 7.009 31.866 3.875 28 3.875C26.833 3.875 25.735 4.165 24.768 4.669C22.686 1.842 19.343 0 15.563 0C10.431 0 6.088 3.38 4.64 8.036C1.982 8.653 0 11.03 0 13.875C0 16.854 2.174 19.32 5.021 19.788C5.237 23.737 8.498 26.875 12.5 26.875C14.676 26.875 16.63 25.942 18 24.462C19.37 25.942 21.323 26.875 23.5 26.875C27.643 26.875 31 23.518 31 19.375C31 18.665 30.895 17.981 30.711 17.33C33.23 16.271 35 13.78 35 10.875Z" fill="#85C8F8"/>
<path d="M4 32.875C5.65685 32.875 7 31.5319 7 29.875C7 28.2181 5.65685 26.875 4 26.875C2.34315 26.875 1 28.2181 1 29.875C1 31.5319 2.34315 32.875 4 32.875Z" fill="#85C8F8"/>
</svg>
